<svg xmlns="http://www.w3.org/2000/svg" viewBox="0 0 900 220" width="900" height="220" role="img" aria-label="Aidan Tran">
  <defs>
    <linearGradient id="accb" x1="0" y1="0" x2="1" y2="1">
      <stop offset="0" stop-color="#64ffda"/>
      <stop offset="1" stop-color="#4f9cf9"/>
    </linearGradient>
    <filter id="gb" x="-40%" y="-40%" width="180%" height="180%">
      <feGaussianBlur stdDeviation="2.4" result="b"/>
      <feMerge><feMergeNode in="b"/><feMergeNode in="SourceGraphic"/></feMerge>
    </filter>
    <pattern id="gridb" width="30" height="30" patternUnits="userSpaceOnUse">
      <path d="M30 0H0V30" fill="none" stroke="#dfe7ef" stroke-width="0.6" opacity="0.05"/>
    </pattern>
  </defs>
  <clipPath id="card"><rect width="900" height="220" rx="18"/></clipPath>
  <g clip-path="url(#card)">
    <rect width="900" height="220" fill="#0a0e14"/>
    <rect width="900" height="220" fill="url(#gridb)"/>
    <!-- travelling baseline wave -->
    <g opacity="0.5">
      <path d="M -200.0 190.1 L -196.0 190.8 L -192.0 191.6 L -188.0 192.3 L -184.0 193.2 L -180.0 194.0 L -176.0 194.8 L -172.0 195.7 L -168.0 196.4 L -164.0 197.2 L -160.0 197.9 L -156.0 198.5 L -152.0 199.0 L -148.0 199.4 L -144.0 199.7 L -140.0 199.9 L -136.0 200.0 L -132.0 200.0 L -128.0 199.8 L -124.0 199.6 L -120.0 199.2 L -116.0 198.7 L -112.0 198.2 L -108.0 197.5 L -104.0 196.8 L -100.0 196.1 L -96.0 195.2 L -92.0 194.4 L -88.0 193.6 L -84.0 192.8 L -80.0 191.9 L -76.0 191.2 L -72.0 190.5 L -68.0 189.8 L -64.0 189.3 L -60.0 188.8 L -56.0 188.4 L -52.0 188.2 L -48.0 188.0 L -44.0 188.0 L -40.0 188.1 L -36.0 188.3 L -32.0 188.6 L -28.0 189.0 L -24.0 189.5 L -20.0 190.1 L -16.0 190.8 L -12.0 191.6 L -8.0 192.3 L -4.0 193.2 L 0.0 194.0 L 4.0 194.8 L 8.0 195.7 L 12.0 196.4 L 16.0 197.2 L 20.0 197.9 L 24.0 198.5 L 28.0 199.0 L 32.0 199.4 L 36.0 199.7 L 40.0 199.9 L 44.0 200.0 L 48.0 200.0 L 52.0 199.8 L 56.0 199.6 L 60.0 199.2 L 64.0 198.7 L 68.0 198.2 L 72.0 197.5 L 76.0 196.8 L 80.0 196.1 L 84.0 195.2 L 88.0 194.4 L 92.0 193.6 L 96.0 192.8 L 100.0 191.9 L 104.0 191.2 L 108.0 190.5 L 112.0 189.8 L 116.0 189.3 L 120.0 188.8 L 124.0 188.4 L 128.0 188.2 L 132.0 188.0 L 136.0 188.0 L 140.0 188.1 L 144.0 188.3 L 148.0 188.6 L 152.0 189.0 L 156.0 189.5 L 160.0 190.1 L 164.0 190.8 L 168.0 191.6 L 172.0 192.3 L 176.0 193.2 L 180.0 194.0 L 184.0 194.8 L 188.0 195.7 L 192.0 196.4 L 196.0 197.2 L 200.0 197.9 L 204.0 198.5 L 208.0 199.0 L 212.0 199.4 L 216.0 199.7 L 220.0 199.9 L 224.0 200.0 L 228.0 200.0 L 232.0 199.8 L 236.0 199.6 L 240.0 199.2 L 244.0 198.7 L 248.0 198.2 L 252.0 197.5 L 256.0 196.8 L 260.0 196.1 L 264.0 195.2 L 268.0 194.4 L 272.0 193.6 L 276.0 192.8 L 280.0 191.9 L 284.0 191.2 L 288.0 190.5 L 292.0 189.8 L 296.0 189.3 L 300.0 188.8 L 304.0 188.4 L 308.0 188.2 L 312.0 188.0 L 316.0 188.0 L 320.0 188.1 L 324.0 188.3 L 328.0 188.6 L 332.0 189.0 L 336.0 189.5 L 340.0 190.1 L 344.0 190.8 L 348.0 191.6 L 352.0 192.3 L 356.0 193.2 L 360.0 194.0 L 364.0 194.8 L 368.0 195.7 L 372.0 196.4 L 376.0 197.2 L 380.0 197.9 L 384.0 198.5 L 388.0 199.0 L 392.0 199.4 L 396.0 199.7 L 400.0 199.9 L 404.0 200.0 L 408.0 200.0 L 412.0 199.8 L 416.0 199.6 L 420.0 199.2 L 424.0 198.7 L 428.0 198.2 L 432.0 197.5 L 436.0 196.8 L 440.0 196.1 L 444.0 195.2 L 448.0 194.4 L 452.0 193.6 L 456.0 192.8 L 460.0 191.9 L 464.0 191.2 L 468.0 190.5 L 472.0 189.8 L 476.0 189.3 L 480.0 188.8 L 484.0 188.4 L 488.0 188.2 L 492.0 188.0 L 496.0 188.0 L 500.0 188.1 L 504.0 188.3 L 508.0 188.6 L 512.0 189.0 L 516.0 189.5 L 520.0 190.1 L 524.0 190.8 L 528.0 191.6 L 532.0 192.3 L 536.0 193.2 L 540.0 194.0 L 544.0 194.8 L 548.0 195.7 L 552.0 196.4 L 556.0 197.2 L 560.0 197.9 L 564.0 198.5 L 568.0 199.0 L 572.0 199.4 L 576.0 199.7 L 580.0 199.9 L 584.0 200.0 L 588.0 200.0 L 592.0 199.8 L 596.0 199.6 L 600.0 199.2 L 604.0 198.7 L 608.0 198.2 L 612.0 197.5 L 616.0 196.8 L 620.0 196.1 L 624.0 195.2 L 628.0 194.4 L 632.0 193.6 L 636.0 192.8 L 640.0 191.9 L 644.0 191.2 L 648.0 190.5 L 652.0 189.8 L 656.0 189.3 L 660.0 188.8 L 664.0 188.4 L 668.0 188.2 L 672.0 188.0 L 676.0 188.0 L 680.0 188.1 L 684.0 188.3 L 688.0 188.6 L 692.0 189.0 L 696.0 189.5 L 700.0 190.1 L 704.0 190.8 L 708.0 191.6 L 712.0 192.3 L 716.0 193.2 L 720.0 194.0 L 724.0 194.8 L 728.0 195.7 L 732.0 196.4 L 736.0 197.2 L 740.0 197.9 L 744.0 198.5 L 748.0 199.0 L 752.0 199.4 L 756.0 199.7 L 760.0 199.9 L 764.0 200.0 L 768.0 200.0 L 772.0 199.8 L 776.0 199.6 L 780.0 199.2 L 784.0 198.7 L 788.0 198.2 L 792.0 197.5 L 796.0 196.8 L 800.0 196.1 L 804.0 195.2 L 808.0 194.4 L 812.0 193.6 L 816.0 192.8 L 820.0 191.9 L 824.0 191.2 L 828.0 190.5 L 832.0 189.8 L 836.0 189.3 L 840.0 188.8 L 844.0 188.4 L 848.0 188.2 L 852.0 188.0 L 856.0 188.0 L 860.0 188.1 L 864.0 188.3 L 868.0 188.6 L 872.0 189.0 L 876.0 189.5 L 880.0 190.1 L 884.0 190.8 L 888.0 191.6 L 892.0 192.3 L 896.0 193.2 L 900.0 194.0 L 904.0 194.8 L 908.0 195.7 L 912.0 196.4 L 916.0 197.2 L 920.0 197.9 L 924.0 198.5 L 928.0 199.0 L 932.0 199.4 L 936.0 199.7 L 940.0 199.9 L 944.0 200.0 L 948.0 200.0 L 952.0 199.8 L 956.0 199.6 L 960.0 199.2 L 964.0 198.7 L 968.0 198.2 L 972.0 197.5 L 976.0 196.8 L 980.0 196.1 L 984.0 195.2 L 988.0 194.4 L 992.0 193.6 L 996.0 192.8 L 1000.0 191.9 L 1004.0 191.2 L 1008.0 190.5 L 1012.0 189.8 L 1016.0 189.3 L 1020.0 188.8 L 1024.0 188.4 L 1028.0 188.2 L 1032.0 188.0 L 1036.0 188.0 L 1040.0 188.1 L 1044.0 188.3 L 1048.0 188.6 L 1052.0 189.0 L 1056.0 189.5 L 1060.0 190.1 L 1064.0 190.8 L 1068.0 191.6 L 1072.0 192.3 L 1076.0 193.2 L 1080.0 194.0 L 1084.0 194.8 L 1088.0 195.7 L 1092.0 196.4 L 1096.0 197.2 L 1100.0 197.9" fill="none" stroke="url(#accb)" stroke-width="1.3">
        <animateTransform attributeName="transform" type="translate" from="0 0" to="-180 0" dur="6s" repeatCount="indefinite"/>
      </path>
    </g>
    <text x="250" y="60" font-family="serif" font-size="22" fill="#dfe7ef" opacity="0.07">π<animateTransform attributeName="transform" type="translate" values="0 0;0 -8;0 0" dur="7s" repeatCount="indefinite"/></text><text x="470" y="168" font-family="serif" font-size="22" fill="#dfe7ef" opacity="0.07">φ<animateTransform attributeName="transform" type="translate" values="0 0;0 -8;0 0" dur="8s" repeatCount="indefinite"/></text><text x="600" y="54" font-family="serif" font-size="22" fill="#dfe7ef" opacity="0.07">∑<animateTransform attributeName="transform" type="translate" values="0 0;0 -8;0 0" dur="9s" repeatCount="indefinite"/></text><text x="705" y="178" font-family="serif" font-size="22" fill="#dfe7ef" opacity="0.07">∫<animateTransform attributeName="transform" type="translate" values="0 0;0 -8;0 0" dur="10s" repeatCount="indefinite"/></text><text x="360" y="196" font-family="serif" font-size="22" fill="#dfe7ef" opacity="0.07">∞<animateTransform attributeName="transform" type="translate" values="0 0;0 -8;0 0" dur="11s" repeatCount="indefinite"/></text><text x="540" y="96" font-family="serif" font-size="22" fill="#dfe7ef" opacity="0.07">∂<animateTransform attributeName="transform" type="translate" values="0 0;0 -8;0 0" dur="12s" repeatCount="indefinite"/></text>
    <!-- decorative lissajous -->
    <path d="M 840.0 110.0 L 839.8 113.3 L 839.1 116.7 L 838.1 120.0 L 836.6 123.3 L 834.7 126.6 L 832.4 129.8 L 829.7 132.9 L 826.6 136.0 L 823.2 139.1 L 819.5 142.0 L 815.5 144.9 L 811.1 147.6 L 806.6 150.3 L 801.8 152.8 L 796.8 155.3 L 791.6 157.6 L 786.3 159.7 L 781.0 161.8 L 775.5 163.7 L 770.0 165.4 L 764.5 167.0 L 759.0 168.5 L 753.7 169.7 L 748.4 170.9 L 743.2 171.8 L 738.2 172.6 L 733.4 173.2 L 728.9 173.6 L 724.5 173.9 L 720.5 174.0 L 716.8 173.9 L 713.4 173.6 L 710.3 173.2 L 707.6 172.6 L 705.3 171.8 L 703.4 170.9 L 701.9 169.7 L 700.9 168.5 L 700.2 167.0 L 700.0 165.4 L 700.2 163.7 L 700.9 161.8 L 701.9 159.7 L 703.4 157.6 L 705.3 155.3 L 707.6 152.8 L 710.3 150.3 L 713.4 147.6 L 716.8 144.9 L 720.5 142.0 L 724.5 139.1 L 728.9 136.0 L 733.4 132.9 L 738.2 129.8 L 743.2 126.6 L 748.4 123.3 L 753.7 120.0 L 759.0 116.7 L 764.5 113.3 L 770.0 110.0 L 775.5 106.7 L 781.0 103.3 L 786.3 100.0 L 791.6 96.7 L 796.8 93.4 L 801.8 90.2 L 806.6 87.1 L 811.1 84.0 L 815.5 80.9 L 819.5 78.0 L 823.2 75.1 L 826.6 72.4 L 829.7 69.7 L 832.4 67.2 L 834.7 64.7 L 836.6 62.4 L 838.1 60.3 L 839.1 58.2 L 839.8 56.3 L 840.0 54.6 L 839.8 53.0 L 839.1 51.5 L 838.1 50.3 L 836.6 49.1 L 834.7 48.2 L 832.4 47.4 L 829.7 46.8 L 826.6 46.4 L 823.2 46.1 L 819.5 46.0 L 815.5 46.1 L 811.1 46.4 L 806.6 46.8 L 801.8 47.4 L 796.8 48.2 L 791.6 49.1 L 786.3 50.3 L 781.0 51.5 L 775.5 53.0 L 770.0 54.6 L 764.5 56.3 L 759.0 58.2 L 753.7 60.3 L 748.4 62.4 L 743.2 64.7 L 738.2 67.2 L 733.4 69.7 L 728.9 72.4 L 724.5 75.1 L 720.5 78.0 L 716.8 80.9 L 713.4 84.0 L 710.3 87.1 L 707.6 90.2 L 705.3 93.4 L 703.4 96.7 L 701.9 100.0 L 700.9 103.3 L 700.2 106.7 L 700.0 110.0 L 700.2 113.3 L 700.9 116.7 L 701.9 120.0 L 703.4 123.3 L 705.3 126.6 L 707.6 129.8 L 710.3 132.9 L 713.4 136.0 L 716.8 139.1 L 720.5 142.0 L 724.5 144.9 L 728.9 147.6 L 733.4 150.3 L 738.2 152.8 L 743.2 155.3 L 748.4 157.6 L 753.7 159.7 L 759.0 161.8 L 764.5 163.7 L 770.0 165.4 L 775.5 167.0 L 781.0 168.5 L 786.3 169.7 L 791.6 170.9 L 796.8 171.8 L 801.8 172.6 L 806.6 173.2 L 811.1 173.6 L 815.5 173.9 L 819.5 174.0 L 823.2 173.9 L 826.6 173.6 L 829.7 173.2 L 832.4 172.6 L 834.7 171.8 L 836.6 170.9 L 838.1 169.7 L 839.1 168.5 L 839.8 167.0 L 840.0 165.4 L 839.8 163.7 L 839.1 161.8 L 838.1 159.7 L 836.6 157.6 L 834.7 155.3 L 832.4 152.8 L 829.7 150.3 L 826.6 147.6 L 823.2 144.9 L 819.5 142.0 L 815.5 139.1 L 811.1 136.0 L 806.6 132.9 L 801.8 129.8 L 796.8 126.6 L 791.6 123.3 L 786.3 120.0 L 781.0 116.7 L 775.5 113.3 L 770.0 110.0 L 764.5 106.7 L 759.0 103.3 L 753.7 100.0 L 748.4 96.7 L 743.2 93.4 L 738.2 90.2 L 733.4 87.1 L 728.9 84.0 L 724.5 80.9 L 720.5 78.0 L 716.8 75.1 L 713.4 72.4 L 710.3 69.7 L 707.6 67.2 L 705.3 64.7 L 703.4 62.4 L 701.9 60.3 L 700.9 58.2 L 700.2 56.3 L 700.0 54.6 L 700.2 53.0 L 700.9 51.5 L 701.9 50.3 L 703.4 49.1 L 705.3 48.2 L 707.6 47.4 L 710.3 46.8 L 713.4 46.4 L 716.8 46.1 L 720.5 46.0 L 724.5 46.1 L 728.9 46.4 L 733.4 46.8 L 738.2 47.4 L 743.2 48.2 L 748.4 49.1 L 753.7 50.3 L 759.0 51.5 L 764.5 53.0 L 770.0 54.6 L 775.5 56.3 L 781.0 58.2 L 786.3 60.3 L 791.6 62.4 L 796.8 64.7 L 801.8 67.2 L 806.6 69.7 L 811.1 72.4 L 815.5 75.1 L 819.5 78.0 L 823.2 80.9 L 826.6 84.0 L 829.7 87.1 L 832.4 90.2 L 834.7 93.4 L 836.6 96.7 L 838.1 100.0 L 839.1 103.3 L 839.8 106.7 L 840.0 110.0" fill="none" stroke="#dfe7ef" stroke-width="1" opacity="0.16" pathLength="1"
          stroke-dasharray="1" stroke-dashoffset="1">
      <animate attributeName="stroke-dashoffset" values="1;0;0;1" keyTimes="0;0.5;0.85;1" dur="11s" repeatCount="indefinite"/>
    </path>
    <!-- unit circle construction -->
    <circle cx="132" cy="110.0" r="50" fill="none" stroke="#dfe7ef" stroke-width="1" opacity="0.28"/>
    <line x1="74" y1="110.0" x2="190" y2="110.0" stroke="#dfe7ef" stroke-width="0.6" opacity="0.18"/>
    <line x1="132" y1="52.0" x2="132" y2="168.0" stroke="#dfe7ef" stroke-width="0.6" opacity="0.18"/>
    <g>
      <line x1="132" y1="110.0" x2="182" y2="110.0" stroke="url(#accb)" stroke-width="1.4">
        <animateTransform attributeName="transform" type="rotate" from="0 132 110.0" to="-360 132 110.0" dur="9s" repeatCount="indefinite"/>
      </line>
    </g>
    <circle r="4" fill="#64ffda">
      <animateMotion dur="9s" repeatCount="indefinite" keyPoints="0;1" keyTimes="0;1" rotate="0" path="M 82 110.0 a 50 50 0 1 1 100 0 a 50 50 0 1 1 -100 0"/>
    </circle>
    <!-- title -->
    <g font-family="ui-sans-serif,system-ui,'Segoe UI',Roboto,Helvetica,Arial,sans-serif">
      <text x="232" y="106" font-size="50" font-weight="700" letter-spacing="7" fill="#dfe7ef">AIDAN TRAN</text>
      <path d="M234 122 H520" stroke="url(#accb)" stroke-width="2" pathLength="1" stroke-dasharray="1" stroke-dashoffset="1">
        <animate attributeName="stroke-dashoffset" values="1;0" dur="2.2s" begin="0.3s" fill="freeze"/>
      </path>
    </g>
    <g font-family="ui-monospace,'SF Mono','JetBrains Mono',monospace" font-size="15">
      <text x="235" y="150" fill="#5b6b7d">$ whoami<tspan fill="#64ffda"> → </tspan><tspan fill="#dfe7ef">AI/ML · systems · full stack</tspan></text>
      <rect x="600" y="139" width="9" height="15" fill="#64ffda">
        <animate attributeName="opacity" values="1;1;0;0" keyTimes="0;0.5;0.5;1" dur="1.1s" repeatCount="indefinite"/>
      </rect>
    </g>
    <rect x="0.5" y="0.5" width="899" height="219" rx="18" fill="none" stroke="#1b2632"/>
  </g>
</svg>