<svg xmlns="http://www.w3.org/2000/svg" viewBox="0 0 900 36" width="900" height="36" role="img" aria-label="divider">
  <defs>
    <linearGradient id="accd" x1="0" y1="0" x2="1" y2="1">
      <stop offset="0" stop-color="#64ffda"/>
      <stop offset="1" stop-color="#4f9cf9"/>
    </linearGradient>
    <filter id="gd" x="-40%" y="-40%" width="180%" height="180%">
      <feGaussianBlur stdDeviation="2.4" result="b"/>
      <feMerge><feMergeNode in="b"/><feMergeNode in="SourceGraphic"/></feMerge>
    </filter>
    <pattern id="gridd" width="30" height="30" patternUnits="userSpaceOnUse">
      <path d="M30 0H0V30" fill="none" stroke="#dfe7ef" stroke-width="0.6" opacity="0.05"/>
    </pattern>
  </defs>
  <clipPath id="dc"><rect width="900" height="36"/></clipPath>
  <g clip-path="url(#dc)">
    <line x1="0" y1="18.0" x2="900" y2="18.0" stroke="#1b2632" stroke-width="1" stroke-dasharray="2 6"/>
    <path d="M -200.0 14.1 L -196.0 14.8 L -192.0 15.6 L -188.0 16.3 L -184.0 17.2 L -180.0 18.0 L -176.0 18.8 L -172.0 19.7 L -168.0 20.4 L -164.0 21.2 L -160.0 21.9 L -156.0 22.5 L -152.0 23.0 L -148.0 23.4 L -144.0 23.7 L -140.0 23.9 L -136.0 24.0 L -132.0 24.0 L -128.0 23.8 L -124.0 23.6 L -120.0 23.2 L -116.0 22.7 L -112.0 22.2 L -108.0 21.5 L -104.0 20.8 L -100.0 20.1 L -96.0 19.2 L -92.0 18.4 L -88.0 17.6 L -84.0 16.8 L -80.0 15.9 L -76.0 15.2 L -72.0 14.5 L -68.0 13.8 L -64.0 13.3 L -60.0 12.8 L -56.0 12.4 L -52.0 12.2 L -48.0 12.0 L -44.0 12.0 L -40.0 12.1 L -36.0 12.3 L -32.0 12.6 L -28.0 13.0 L -24.0 13.5 L -20.0 14.1 L -16.0 14.8 L -12.0 15.6 L -8.0 16.3 L -4.0 17.2 L 0.0 18.0 L 4.0 18.8 L 8.0 19.7 L 12.0 20.4 L 16.0 21.2 L 20.0 21.9 L 24.0 22.5 L 28.0 23.0 L 32.0 23.4 L 36.0 23.7 L 40.0 23.9 L 44.0 24.0 L 48.0 24.0 L 52.0 23.8 L 56.0 23.6 L 60.0 23.2 L 64.0 22.7 L 68.0 22.2 L 72.0 21.5 L 76.0 20.8 L 80.0 20.1 L 84.0 19.2 L 88.0 18.4 L 92.0 17.6 L 96.0 16.8 L 100.0 15.9 L 104.0 15.2 L 108.0 14.5 L 112.0 13.8 L 116.0 13.3 L 120.0 12.8 L 124.0 12.4 L 128.0 12.2 L 132.0 12.0 L 136.0 12.0 L 140.0 12.1 L 144.0 12.3 L 148.0 12.6 L 152.0 13.0 L 156.0 13.5 L 160.0 14.1 L 164.0 14.8 L 168.0 15.6 L 172.0 16.3 L 176.0 17.2 L 180.0 18.0 L 184.0 18.8 L 188.0 19.7 L 192.0 20.4 L 196.0 21.2 L 200.0 21.9 L 204.0 22.5 L 208.0 23.0 L 212.0 23.4 L 216.0 23.7 L 220.0 23.9 L 224.0 24.0 L 228.0 24.0 L 232.0 23.8 L 236.0 23.6 L 240.0 23.2 L 244.0 22.7 L 248.0 22.2 L 252.0 21.5 L 256.0 20.8 L 260.0 20.1 L 264.0 19.2 L 268.0 18.4 L 272.0 17.6 L 276.0 16.8 L 280.0 15.9 L 284.0 15.2 L 288.0 14.5 L 292.0 13.8 L 296.0 13.3 L 300.0 12.8 L 304.0 12.4 L 308.0 12.2 L 312.0 12.0 L 316.0 12.0 L 320.0 12.1 L 324.0 12.3 L 328.0 12.6 L 332.0 13.0 L 336.0 13.5 L 340.0 14.1 L 344.0 14.8 L 348.0 15.6 L 352.0 16.3 L 356.0 17.2 L 360.0 18.0 L 364.0 18.8 L 368.0 19.7 L 372.0 20.4 L 376.0 21.2 L 380.0 21.9 L 384.0 22.5 L 388.0 23.0 L 392.0 23.4 L 396.0 23.7 L 400.0 23.9 L 404.0 24.0 L 408.0 24.0 L 412.0 23.8 L 416.0 23.6 L 420.0 23.2 L 424.0 22.7 L 428.0 22.2 L 432.0 21.5 L 436.0 20.8 L 440.0 20.1 L 444.0 19.2 L 448.0 18.4 L 452.0 17.6 L 456.0 16.8 L 460.0 15.9 L 464.0 15.2 L 468.0 14.5 L 472.0 13.8 L 476.0 13.3 L 480.0 12.8 L 484.0 12.4 L 488.0 12.2 L 492.0 12.0 L 496.0 12.0 L 500.0 12.1 L 504.0 12.3 L 508.0 12.6 L 512.0 13.0 L 516.0 13.5 L 520.0 14.1 L 524.0 14.8 L 528.0 15.6 L 532.0 16.3 L 536.0 17.2 L 540.0 18.0 L 544.0 18.8 L 548.0 19.7 L 552.0 20.4 L 556.0 21.2 L 560.0 21.9 L 564.0 22.5 L 568.0 23.0 L 572.0 23.4 L 576.0 23.7 L 580.0 23.9 L 584.0 24.0 L 588.0 24.0 L 592.0 23.8 L 596.0 23.6 L 600.0 23.2 L 604.0 22.7 L 608.0 22.2 L 612.0 21.5 L 616.0 20.8 L 620.0 20.1 L 624.0 19.2 L 628.0 18.4 L 632.0 17.6 L 636.0 16.8 L 640.0 15.9 L 644.0 15.2 L 648.0 14.5 L 652.0 13.8 L 656.0 13.3 L 660.0 12.8 L 664.0 12.4 L 668.0 12.2 L 672.0 12.0 L 676.0 12.0 L 680.0 12.1 L 684.0 12.3 L 688.0 12.6 L 692.0 13.0 L 696.0 13.5 L 700.0 14.1 L 704.0 14.8 L 708.0 15.6 L 712.0 16.3 L 716.0 17.2 L 720.0 18.0 L 724.0 18.8 L 728.0 19.7 L 732.0 20.4 L 736.0 21.2 L 740.0 21.9 L 744.0 22.5 L 748.0 23.0 L 752.0 23.4 L 756.0 23.7 L 760.0 23.9 L 764.0 24.0 L 768.0 24.0 L 772.0 23.8 L 776.0 23.6 L 780.0 23.2 L 784.0 22.7 L 788.0 22.2 L 792.0 21.5 L 796.0 20.8 L 800.0 20.1 L 804.0 19.2 L 808.0 18.4 L 812.0 17.6 L 816.0 16.8 L 820.0 15.9 L 824.0 15.2 L 828.0 14.5 L 832.0 13.8 L 836.0 13.3 L 840.0 12.8 L 844.0 12.4 L 848.0 12.2 L 852.0 12.0 L 856.0 12.0 L 860.0 12.1 L 864.0 12.3 L 868.0 12.6 L 872.0 13.0 L 876.0 13.5 L 880.0 14.1 L 884.0 14.8 L 888.0 15.6 L 892.0 16.3 L 896.0 17.2 L 900.0 18.0 L 904.0 18.8 L 908.0 19.7 L 912.0 20.4 L 916.0 21.2 L 920.0 21.9 L 924.0 22.5 L 928.0 23.0 L 932.0 23.4 L 936.0 23.7 L 940.0 23.9 L 944.0 24.0 L 948.0 24.0 L 952.0 23.8 L 956.0 23.6 L 960.0 23.2 L 964.0 22.7 L 968.0 22.2 L 972.0 21.5 L 976.0 20.8 L 980.0 20.1 L 984.0 19.2 L 988.0 18.4 L 992.0 17.6 L 996.0 16.8 L 1000.0 15.9 L 1004.0 15.2 L 1008.0 14.5 L 1012.0 13.8 L 1016.0 13.3 L 1020.0 12.8 L 1024.0 12.4 L 1028.0 12.2 L 1032.0 12.0 L 1036.0 12.0 L 1040.0 12.1 L 1044.0 12.3 L 1048.0 12.6 L 1052.0 13.0 L 1056.0 13.5 L 1060.0 14.1 L 1064.0 14.8 L 1068.0 15.6 L 1072.0 16.3 L 1076.0 17.2 L 1080.0 18.0 L 1084.0 18.8 L 1088.0 19.7 L 1092.0 20.4 L 1096.0 21.2 L 1100.0 21.9" fill="none" stroke="url(#accd)" stroke-width="1.5" opacity="0.7">
      <animateTransform attributeName="transform" type="translate" from="0 0" to="-180 0" dur="5s" repeatCount="indefinite"/>
    </path>
    <circle cx="450.0" cy="18.0" r="3.5" fill="#64ffda">
      <animate attributeName="opacity" values="1;0.3;1" dur="2.4s" repeatCount="indefinite"/>
    </circle>
  </g>
</svg>