<?xml version="1.0" encoding="UTF-8"?>
<svg width="960" height="240" viewBox="0 0 960 240" xmlns="http://www.w3.org/2000/svg" role="img" aria-labelledby="title desc">
  <title id="title">Galaxia Commit Grid — Retro Arcade</title>
  <desc id="desc">A retro ship shoots at green commit squares; inline, script-free SVG animation for GitHub README.</desc>

  <defs>
    <linearGradient id="g-thruster" x1="0" y1="0" x2="0" y2="1">
      <stop offset="0%" stop-color="#22d3ee"/>
      <stop offset="100%" stop-color="#7c3aed"/>
    </linearGradient>
    <linearGradient id="g-laser" x1="0" y1="0" x2="0" y2="1">
      <stop offset="0%" stop-color="#a7f3d0"/>
      <stop offset="100%" stop-color="#34d399"/>
    </linearGradient>
    <filter id="f-glow" x="-20%" y="-20%" width="140%" height="140%">
      <feGaussianBlur stdDeviation="2" result="b"/>
      <feMerge>
        <feMergeNode in="b"/>
        <feMergeNode in="SourceGraphic"/>
      </feMerge>
    </filter>
    <!-- bullet paths from ship nose (460,182) to target centers -->
    <path id="p1" d="M460 182 L237 95"/>
    <path id="p2" d="M460 182 L273 131"/>
    <path id="p3" d="M460 182 L309 77"/>
    <path id="p4" d="M460 182 L345 149"/>
    <path id="p5" d="M460 182 L381 113"/>
  </defs>

  <rect width="100%" height="100%" fill="#0b1020"/>

  <!-- subtle starfield -->
  <g opacity="0.35" fill="#94a3b8">
    <circle cx="40" cy="30" r="1"/>
    <circle cx="140" cy="18" r="1"/>
    <circle cx="220" cy="42" r="1"/>
    <circle cx="300" cy="20" r="1"/>
    <circle cx="520" cy="26" r="1"/>
    <circle cx="600" cy="14" r="1"/>
    <circle cx="740" cy="36" r="1"/>
    <circle cx="860" cy="22" r="1"/>
    <circle cx="900" cy="48" r="1"/>
  </g>

  <!-- commit grid -->
  <g id="commit-grid" transform="translate(140,52)">
    <!-- 14 columns x 7 rows; cell 14x14 with 4px gap -->
    <!-- background cells -->
    <g fill="#143d2a">
      <!-- generate columns -->
      <!-- column 0..13 manually placed -->
      <g transform="translate(0,0)">
        <rect x="0" y="0" width="14" height="14" rx="2"/>
        <rect x="0" y="18" width="14" height="14" rx="2"/>
        <rect x="0" y="36" width="14" height="14" rx="2"/>
        <rect x="0" y="54" width="14" height="14" rx="2"/>
        <rect x="0" y="72" width="14" height="14" rx="2"/>
        <rect x="0" y="90" width="14" height="14" rx="2"/>
        <rect x="0" y="108" width="14" height="14" rx="2"/>
      </g>
      <g transform="translate(18,0)">
        <rect x="0" y="0" width="14" height="14" rx="2"/>
        <rect x="0" y="18" width="14" height="14" rx="2"/>
        <rect x="0" y="36" width="14" height="14" rx="2"/>
        <rect x="0" y="54" width="14" height="14" rx="2"/>
        <rect x="0" y="72" width="14" height="14" rx="2"/>
        <rect x="0" y="90" width="14" height="14" rx="2"/>
        <rect x="0" y="108" width="14" height="14" rx="2"/>
      </g>
      <g transform="translate(36,0)">
        <rect x="0" y="0" width="14" height="14" rx="2"/>
        <rect x="0" y="18" width="14" height="14" rx="2"/>
        <rect x="0" y="36" width="14" height="14" rx="2"/>
        <rect x="0" y="54" width="14" height="14" rx="2"/>
        <rect x="0" y="72" width="14" height="14" rx="2"/>
        <rect x="0" y="90" width="14" height="14" rx="2"/>
        <rect x="0" y="108" width="14" height="14" rx="2"/>
      </g>
      <g transform="translate(54,0)">
        <rect x="0" y="0" width="14" height="14" rx="2"/>
        <rect x="0" y="18" width="14" height="14" rx="2"/>
        <rect x="0" y="36" width="14" height="14" rx="2"/>
        <rect x="0" y="54" width="14" height="14" rx="2"/>
        <rect x="0" y="72" width="14" height="14" rx="2"/>
        <rect x="0" y="90" width="14" height="14" rx="2"/>
        <rect x="0" y="108" width="14" height="14" rx="2"/>
      </g>
      <g transform="translate(72,0)">
        <rect x="0" y="0" width="14" height="14" rx="2"/>
        <rect x="0" y="18" width="14" height="14" rx="2"/>
        <rect x="0" y="36" width="14" height="14" rx="2"/>
        <rect x="0" y="54" width="14" height="14" rx="2"/>
        <rect x="0" y="72" width="14" height="14" rx="2"/>
        <rect x="0" y="90" width="14" height="14" rx="2"/>
        <rect x="0" y="108" width="14" height="14" rx="2"/>
      </g>
      <g transform="translate(90,0)">
        <rect x="0" y="0" width="14" height="14" rx="2"/>
        <rect x="0" y="18" width="14" height="14" rx="2"/>
        <rect x="0" y="36" width="14" height="14" rx="2"/>
        <rect x="0" y="54" width="14" height="14" rx="2"/>
        <rect x="0" y="72" width="14" height="14" rx="2"/>
        <rect x="0" y="90" width="14" height="14" rx="2"/>
        <rect x="0" y="108" width="14" height="14" rx="2"/>
      </g>
      <g transform="translate(108,0)">
        <rect x="0" y="0" width="14" height="14" rx="2"/>
        <rect x="0" y="18" width="14" height="14" rx="2"/>
        <rect x="0" y="36" width="14" height="14" rx="2"/>
        <rect x="0" y="54" width="14" height="14" rx="2"/>
        <rect x="0" y="72" width="14" height="14" rx="2"/>
        <rect x="0" y="90" width="14" height="14" rx="2"/>
        <rect x="0" y="108" width="14" height="14" rx="2"/>
      </g>
      <g transform="translate(126,0)">
        <rect x="0" y="0" width="14" height="14" rx="2"/>
        <rect x="0" y="18" width="14" height="14" rx="2"/>
        <rect x="0" y="36" width="14" height="14" rx="2"/>
        <rect x="0" y="54" width="14" height="14" rx="2"/>
        <rect x="0" y="72" width="14" height="14" rx="2"/>
        <rect x="0" y="90" width="14" height="14" rx="2"/>
        <rect x="0" y="108" width="14" height="14" rx="2"/>
      </g>
      <g transform="translate(144,0)">
        <rect x="0" y="0" width="14" height="14" rx="2"/>
        <rect x="0" y="18" width="14" height="14" rx="2"/>
        <rect x="0" y="36" width="14" height="14" rx="2"/>
        <rect x="0" y="54" width="14" height="14" rx="2"/>
        <rect x="0" y="72" width="14" height="14" rx="2"/>
        <rect x="0" y="90" width="14" height="14" rx="2"/>
        <rect x="0" y="108" width="14" height="14" rx="2"/>
      </g>
      <g transform="translate(162,0)">
        <rect x="0" y="0" width="14" height="14" rx="2"/>
        <rect x="0" y="18" width="14" height="14" rx="2"/>
        <rect x="0" y="36" width="14" height="14" rx="2"/>
        <rect x="0" y="54" width="14" height="14" rx="2"/>
        <rect x="0" y="72" width="14" height="14" rx="2"/>
        <rect x="0" y="90" width="14" height="14" rx="2"/>
        <rect x="0" y="108" width="14" height="14" rx="2"/>
      </g>
      <g transform="translate(180,0)">
        <rect x="0" y="0" width="14" height="14" rx="2"/>
        <rect x="0" y="18" width="14" height="14" rx="2"/>
        <rect x="0" y="36" width="14" height="14" rx="2"/>
        <rect x="0" y="54" width="14" height="14" rx="2"/>
        <rect x="0" y="72" width="14" height="14" rx="2"/>
        <rect x="0" y="90" width="14" height="14" rx="2"/>
        <rect x="0" y="108" width="14" height="14" rx="2"/>
      </g>
      <g transform="translate(198,0)">
        <rect x="0" y="0" width="14" height="14" rx="2"/>
        <rect x="0" y="18" width="14" height="14" rx="2"/>
        <rect x="0" y="36" width="14" height="14" rx="2"/>
        <rect x="0" y="54" width="14" height="14" rx="2"/>
        <rect x="0" y="72" width="14" height="14" rx="2"/>
        <rect x="0" y="90" width="14" height="14" rx="2"/>
        <rect x="0" y="108" width="14" height="14" rx="2"/>
      </g>
      <g transform="translate(216,0)">
        <rect x="0" y="0" width="14" height="14" rx="2"/>
        <rect x="0" y="18" width="14" height="14" rx="2"/>
        <rect x="0" y="36" width="14" height="14" rx="2"/>
        <rect x="0" y="54" width="14" height="14" rx="2"/>
        <rect x="0" y="72" width="14" height="14" rx="2"/>
        <rect x="0" y="90" width="14" height="14" rx="2"/>
        <rect x="0" y="108" width="14" height="14" rx="2"/>
      </g>
      <g transform="translate(234,0)">
        <rect x="0" y="0" width="14" height="14" rx="2"/>
        <rect x="0" y="18" width="14" height="14" rx="2"/>
        <rect x="0" y="36" width="14" height="14" rx="2"/>
        <rect x="0" y="54" width="14" height="14" rx="2"/>
        <rect x="0" y="72" width="14" height="14" rx="2"/>
        <rect x="0" y="90" width="14" height="14" rx="2"/>
        <rect x="0" y="108" width="14" height="14" rx="2"/>
      </g>
      <g transform="translate(252,0)">
        <rect x="0" y="0" width="14" height="14" rx="2"/>
        <rect x="0" y="18" width="14" height="14" rx="2"/>
        <rect x="0" y="36" width="14" height="14" rx="2"/>
        <rect x="0" y="54" width="14" height="14" rx="2"/>
        <rect x="0" y="72" width="14" height="14" rx="2"/>
        <rect x="0" y="90" width="14" height="14" rx="2"/>
        <rect x="0" y="108" width="14" height="14" rx="2"/>
      </g>
    </g>

    <!-- targets with destruction animations coordinated to bullet arrivals -->
    <g id="targets" fill="#1f6f3f">
      <!-- t1 -->
      <rect id="t1" x="90" y="36" width="14" height="14" rx="2">
        <!-- hit: fade + drop + spin -->
        <animate attributeName="opacity" to="0" dur="0.25s" begin="b1.end" fill="freeze"/>
        <animate attributeName="y" to="60" dur="0.35s" begin="b1.end" fill="freeze"/>
        <animateTransform attributeName="transform" type="rotate" begin="b1.end" dur="0.35s" values="0 97 43; 24 97 43" fill="freeze"/>
        <!-- reset for next cycle -->
        <animate attributeName="opacity" to="1" dur="0.001s" begin="b5.end+0.6s" fill="freeze"/>
        <animate attributeName="y" to="36" dur="0.001s" begin="b5.end+0.6s" fill="freeze"/>
        <animateTransform attributeName="transform" type="rotate" begin="b5.end+0.6s" dur="0.001s" values="0 97 43; 0 97 43" fill="freeze"/>
      </rect>
      <!-- t2 -->
      <rect id="t2" x="126" y="72" width="14" height="14" rx="2">
        <animate attributeName="opacity" to="0" dur="0.25s" begin="b2.end" fill="freeze"/>
        <animate attributeName="y" to="96" dur="0.35s" begin="b2.end" fill="freeze"/>
        <animateTransform attributeName="transform" type="rotate" begin="b2.end" dur="0.35s" values="0 133 79; -18 133 79" fill="freeze"/>
        <animate attributeName="opacity" to="1" dur="0.001s" begin="b5.end+0.6s" fill="freeze"/>
        <animate attributeName="y" to="72" dur="0.001s" begin="b5.end+0.6s" fill="freeze"/>
        <animateTransform attributeName="transform" type="rotate" begin="b5.end+0.6s" dur="0.001s" values="0 133 79; 0 133 79" fill="freeze"/>
      </rect>
      <!-- t3 -->
      <rect id="t3" x="162" y="18" width="14" height="14" rx="2">
        <animate attributeName="opacity" to="0" dur="0.25s" begin="b3.end" fill="freeze"/>
        <animate attributeName="y" to="42" dur="0.35s" begin="b3.end" fill="freeze"/>
        <animateTransform attributeName="transform" type="rotate" begin="b3.end" dur="0.35s" values="0 169 25; 20 169 25" fill="freeze"/>
        <animate attributeName="opacity" to="1" dur="0.001s" begin="b5.end+0.6s" fill="freeze"/>
        <animate attributeName="y" to="18" dur="0.001s" begin="b5.end+0.6s" fill="freeze"/>
        <animateTransform attributeName="transform" type="rotate" begin="b5.end+0.6s" dur="0.001s" values="0 169 25; 0 169 25" fill="freeze"/>
      </rect>
      <!-- t4 -->
      <rect id="t4" x="198" y="90" width="14" height="14" rx="2">
        <animate attributeName="opacity" to="0" dur="0.25s" begin="b4.end" fill="freeze"/>
        <animate attributeName="y" to="114" dur="0.35s" begin="b4.end" fill="freeze"/>
        <animateTransform attributeName="transform" type="rotate" begin="b4.end" dur="0.35s" values="0 205 97; -16 205 97" fill="freeze"/>
        <animate attributeName="opacity" to="1" dur="0.001s" begin="b5.end+0.6s" fill="freeze"/>
        <animate attributeName="y" to="90" dur="0.001s" begin="b5.end+0.6s" fill="freeze"/>
        <animateTransform attributeName="transform" type="rotate" begin="b5.end+0.6s" dur="0.001s" values="0 205 97; 0 205 97" fill="freeze"/>
      </rect>
      <!-- t5 -->
      <rect id="t5" x="234" y="54" width="14" height="14" rx="2">
        <animate attributeName="opacity" to="0" dur="0.25s" begin="b5.end" fill="freeze"/>
        <animate attributeName="y" to="78" dur="0.35s" begin="b5.end" fill="freeze"/>
        <animateTransform attributeName="transform" type="rotate" begin="b5.end" dur="0.35s" values="0 241 61; 18 241 61" fill="freeze"/>
        <animate attributeName="opacity" to="1" dur="0.001s" begin="b5.end+0.6s" fill="freeze"/>
        <animate attributeName="y" to="54" dur="0.001s" begin="b5.end+0.6s" fill="freeze"/>
        <animateTransform attributeName="transform" type="rotate" begin="b5.end+0.6s" dur="0.001s" values="0 241 61; 0 241 61" fill="freeze"/>
      </rect>
    </g>
  </g>

  <!-- ship -->
  <g id="ship" transform="translate(460,192)">
    <polygon points="0,-10 10,6 -10,6" fill="#e2e8f0" filter="url(#f-glow)"/>
    <polygon points="0,6 4,16 -4,16" fill="url(#g-thruster)">
      <animate attributeName="points" values="0,6 4,16 -4,16; 0,6 3,18 -3,18; 0,6 4,16 -4,16" dur="0.5s" repeatCount="indefinite"/>
    </polygon>
    <rect x="-1" y="-16" width="2" height="6" fill="#22d3ee">
      <animate attributeName="opacity" values="0.4;1;0.4" dur="1.2s" repeatCount="indefinite"/>
    </rect>
  </g>

  <!-- bullets with synchronized impacts -->
  <g id="bullets" fill="url(#g-laser)" filter="url(#f-glow)">
    <circle r="2">
      <animateMotion id="b1" dur="0.9s" begin="0s; b5.end+1s" fill="freeze">
        <mpath href="#p1"/>
      </animateMotion>
      <animate attributeName="opacity" values="1;1;0" keyTimes="0;0.99;1" dur="0.9s" begin="b1.begin"/>
    </circle>
    <circle r="2">
      <animateMotion id="b2" dur="0.8s" begin="b1.end+0.2s" fill="freeze">
        <mpath href="#p2"/>
      </animateMotion>
      <animate attributeName="opacity" values="1;1;0" keyTimes="0;0.99;1" dur="0.8s" begin="b2.begin"/>
    </circle>
    <circle r="2">
      <animateMotion id="b3" dur="0.8s" begin="b2.end+0.2s" fill="freeze">
        <mpath href="#p3"/>
      </animateMotion>
      <animate attributeName="opacity" values="1;1;0" keyTimes="0;0.99;1" dur="0.8s" begin="b3.begin"/>
    </circle>
    <circle r="2">
      <animateMotion id="b4" dur="0.7s" begin="b3.end+0.2s" fill="freeze">
        <mpath href="#p4"/>
      </animateMotion>
      <animate attributeName="opacity" values="1;1;0" keyTimes="0;0.99;1" dur="0.7s" begin="b4.begin"/>
    </circle>
    <circle r="2">
      <animateMotion id="b5" dur="0.7s" begin="b4.end+0.2s" fill="freeze">
        <mpath href="#p5"/>
      </animateMotion>
      <animate attributeName="opacity" values="1;1;0" keyTimes="0;0.99;1" dur="0.7s" begin="b5.begin"/>
    </circle>
  </g>

  <!-- impact sparks synchronized to bullet arrivals -->
  <g id="sparks" fill="#a7f3d0" opacity="0.95">
    <circle cx="237" cy="95" r="1">
      <animate attributeName="r" values="1;5;0.5" dur="0.5s" begin="b1.end"/>
      <animate attributeName="opacity" values="1;0.2;0" dur="0.5s" begin="b1.end"/>
    </circle>
    <circle cx="273" cy="131" r="1">
      <animate attributeName="r" values="1;5;0.5" dur="0.5s" begin="b2.end"/>
      <animate attributeName="opacity" values="1;0.2;0" dur="0.5s" begin="b2.end"/>
    </circle>
    <circle cx="309" cy="77" r="1">
      <animate attributeName="r" values="1;5;0.5" dur="0.5s" begin="b3.end"/>
      <animate attributeName="opacity" values="1;0.2;0" dur="0.5s" begin="b3.end"/>
    </circle>
    <circle cx="345" cy="149" r="1">
      <animate attributeName="r" values="1;5;0.5" dur="0.5s" begin="b4.end"/>
      <animate attributeName="opacity" values="1;0.2;0" dur="0.5s" begin="b4.end"/>
    </circle>
    <circle cx="381" cy="113" r="1">
      <animate attributeName="r" values="1;5;0.5" dur="0.5s" begin="b5.end"/>
      <animate attributeName="opacity" values="1;0.2;0" dur="0.5s" begin="b5.end"/>
    </circle>
  </g>

  <!-- frame -->
  <rect x="16" y="16" width="928" height="208" rx="8" ry="8" fill="none" stroke="#0ea5e9" stroke-opacity="0.35"/>
  <text x="28" y="204" fill="#94a3b8" font-family="'SFMono-Regular',Consolas,monospace" font-size="10">inline svg • no js • retro arcade x commit grid</text>
</svg>

