<?xml version="1.0" encoding="UTF-8"?>
<svg width="960" height="240" viewBox="0 0 960 240" xmlns="http://www.w3.org/2000/svg" role="img" aria-labelledby="title desc">
  <title id="title">Galaxia Commit Grid — Retro Arcade</title>
  <desc id="desc">A retro ship shoots at green commit squares; inline, script-free SVG animation for GitHub README.</desc>

  <defs>
    <linearGradient id="g-thruster" x1="0" y1="0" x2="0" y2="1">
      <stop offset="0%" stop-color="#22d3ee"/>
      <stop offset="100%" stop-color="#7c3aed"/>
    </linearGradient>
    <linearGradient id="g-laser" x1="0" y1="0" x2="0" y2="1">
      <stop offset="0%" stop-color="#a7f3d0"/>
      <stop offset="100%" stop-color="#34d399"/>
    </linearGradient>
    <filter id="f-glow" x="-20%" y="-20%" width="140%" height="140%">
      <feGaussianBlur stdDeviation="2" result="b"/>
      <feMerge>
        <feMergeNode in="b"/>
        <feMergeNode in="SourceGraphic"/>
      </feMerge>
    </filter>
  </defs>

  <rect width="100%" height="100%" fill="#0b1020"/>

  <!-- subtle starfield -->
  <g opacity="0.35" fill="#94a3b8">
    <circle cx="40" cy="30" r="1"/>
    <circle cx="140" cy="18" r="1"/>
    <circle cx="220" cy="42" r="1"/>
    <circle cx="300" cy="20" r="1"/>
    <circle cx="520" cy="26" r="1"/>
    <circle cx="600" cy="14" r="1"/>
    <circle cx="740" cy="36" r="1"/>
    <circle cx="860" cy="22" r="1"/>
    <circle cx="900" cy="48" r="1"/>
  </g>

  <!-- commit grid -->
  <g id="commit-grid" transform="translate(140,52)">
    <!-- 14 columns x 7 rows; cell 14x14 with 4px gap -->
    <!-- background cells -->
    <g fill="#143d2a">
      <!-- generate columns -->
      <!-- column 0..13 manually placed -->
      <g transform="translate(0,0)">
        <rect x="0" y="0" width="14" height="14" rx="2"/>
        <rect x="0" y="18" width="14" height="14" rx="2"/>
        <rect x="0" y="36" width="14" height="14" rx="2"/>
        <rect x="0" y="54" width="14" height="14" rx="2"/>
        <rect x="0" y="72" width="14" height="14" rx="2"/>
        <rect x="0" y="90" width="14" height="14" rx="2"/>
        <rect x="0" y="108" width="14" height="14" rx="2"/>
      </g>
      <g transform="translate(18,0)">
        <rect x="0" y="0" width="14" height="14" rx="2"/>
        <rect x="0" y="18" width="14" height="14" rx="2"/>
        <rect x="0" y="36" width="14" height="14" rx="2"/>
        <rect x="0" y="54" width="14" height="14" rx="2"/>
        <rect x="0" y="72" width="14" height="14" rx="2"/>
        <rect x="0" y="90" width="14" height="14" rx="2"/>
        <rect x="0" y="108" width="14" height="14" rx="2"/>
      </g>
      <g transform="translate(36,0)">
        <rect x="0" y="0" width="14" height="14" rx="2"/>
        <rect x="0" y="18" width="14" height="14" rx="2"/>
        <rect x="0" y="36" width="14" height="14" rx="2"/>
        <rect x="0" y="54" width="14" height="14" rx="2"/>
        <rect x="0" y="72" width="14" height="14" rx="2"/>
        <rect x="0" y="90" width="14" height="14" rx="2"/>
        <rect x="0" y="108" width="14" height="14" rx="2"/>
      </g>
      <g transform="translate(54,0)">
        <rect x="0" y="0" width="14" height="14" rx="2"/>
        <rect x="0" y="18" width="14" height="14" rx="2"/>
        <rect x="0" y="36" width="14" height="14" rx="2"/>
        <rect x="0" y="54" width="14" height="14" rx="2"/>
        <rect x="0" y="72" width="14" height="14" rx="2"/>
        <rect x="0" y="90" width="14" height="14" rx="2"/>
        <rect x="0" y="108" width="14" height="14" rx="2"/>
      </g>
      <g transform="translate(72,0)">
        <rect x="0" y="0" width="14" height="14" rx="2"/>
        <rect x="0" y="18" width="14" height="14" rx="2"/>
        <rect x="0" y="36" width="14" height="14" rx="2"/>
        <rect x="0" y="54" width="14" height="14" rx="2"/>
        <rect x="0" y="72" width="14" height="14" rx="2"/>
        <rect x="0" y="90" width="14" height="14" rx="2"/>
        <rect x="0" y="108" width="14" height="14" rx="2"/>
      </g>
      <g transform="translate(90,0)">
        <rect x="0" y="0" width="14" height="14" rx="2"/>
        <rect x="0" y="18" width="14" height="14" rx="2"/>
        <rect x="0" y="36" width="14" height="14" rx="2"/>
        <rect x="0" y="54" width="14" height="14" rx="2"/>
        <rect x="0" y="72" width="14" height="14" rx="2"/>
        <rect x="0" y="90" width="14" height="14" rx="2"/>
        <rect x="0" y="108" width="14" height="14" rx="2"/>
      </g>
      <g transform="translate(108,0)">
        <rect x="0" y="0" width="14" height="14" rx="2"/>
        <rect x="0" y="18" width="14" height="14" rx="2"/>
        <rect x="0" y="36" width="14" height="14" rx="2"/>
        <rect x="0" y="54" width="14" height="14" rx="2"/>
        <rect x="0" y="72" width="14" height="14" rx="2"/>
        <rect x="0" y="90" width="14" height="14" rx="2"/>
        <rect x="0" y="108" width="14" height="14" rx="2"/>
      </g>
      <g transform="translate(126,0)">
        <rect x="0" y="0" width="14" height="14" rx="2"/>
        <rect x="0" y="18" width="14" height="14" rx="2"/>
        <rect x="0" y="36" width="14" height="14" rx="2"/>
        <rect x="0" y="54" width="14" height="14" rx="2"/>
        <rect x="0" y="72" width="14" height="14" rx="2"/>
        <rect x="0" y="90" width="14" height="14" rx="2"/>
        <rect x="0" y="108" width="14" height="14" rx="2"/>
      </g>
      <g transform="translate(144,0)">
        <rect x="0" y="0" width="14" height="14" rx="2"/>
        <rect x="0" y="18" width="14" height="14" rx="2"/>
        <rect x="0" y="36" width="14" height="14" rx="2"/>
        <rect x="0" y="54" width="14" height="14" rx="2"/>
        <rect x="0" y="72" width="14" height="14" rx="2"/>
        <rect x="0" y="90" width="14" height="14" rx="2"/>
        <rect x="0" y="108" width="14" height="14" rx="2"/>
      </g>
      <g transform="translate(162,0)">
        <rect x="0" y="0" width="14" height="14" rx="2"/>
        <rect x="0" y="18" width="14" height="14" rx="2"/>
        <rect x="0" y="36" width="14" height="14" rx="2"/>
        <rect x="0" y="54" width="14" height="14" rx="2"/>
        <rect x="0" y="72" width="14" height="14" rx="2"/>
        <rect x="0" y="90" width="14" height="14" rx="2"/>
        <rect x="0" y="108" width="14" height="14" rx="2"/>
      </g>
      <g transform="translate(180,0)">
        <rect x="0" y="0" width="14" height="14" rx="2"/>
        <rect x="0" y="18" width="14" height="14" rx="2"/>
        <rect x="0" y="36" width="14" height="14" rx="2"/>
        <rect x="0" y="54" width="14" height="14" rx="2"/>
        <rect x="0" y="72" width="14" height="14" rx="2"/>
        <rect x="0" y="90" width="14" height="14" rx="2"/>
        <rect x="0" y="108" width="14" height="14" rx="2"/>
      </g>
      <g transform="translate(198,0)">
        <rect x="0" y="0" width="14" height="14" rx="2"/>
        <rect x="0" y="18" width="14" height="14" rx="2"/>
        <rect x="0" y="36" width="14" height="14" rx="2"/>
        <rect x="0" y="54" width="14" height="14" rx="2"/>
        <rect x="0" y="72" width="14" height="14" rx="2"/>
        <rect x="0" y="90" width="14" height="14" rx="2"/>
        <rect x="0" y="108" width="14" height="14" rx="2"/>
      </g>
      <g transform="translate(216,0)">
        <rect x="0" y="0" width="14" height="14" rx="2"/>
        <rect x="0" y="18" width="14" height="14" rx="2"/>
        <rect x="0" y="36" width="14" height="14" rx="2"/>
        <rect x="0" y="54" width="14" height="14" rx="2"/>
        <rect x="0" y="72" width="14" height="14" rx="2"/>
        <rect x="0" y="90" width="14" height="14" rx="2"/>
        <rect x="0" y="108" width="14" height="14" rx="2"/>
      </g>
      <g transform="translate(234,0)">
        <rect x="0" y="0" width="14" height="14" rx="2"/>
        <rect x="0" y="18" width="14" height="14" rx="2"/>
        <rect x="0" y="36" width="14" height="14" rx="2"/>
        <rect x="0" y="54" width="14" height="14" rx="2"/>
        <rect x="0" y="72" width="14" height="14" rx="2"/>
        <rect x="0" y="90" width="14" height="14" rx="2"/>
        <rect x="0" y="108" width="14" height="14" rx="2"/>
      </g>
      <g transform="translate(252,0)">
        <rect x="0" y="0" width="14" height="14" rx="2"/>
        <rect x="0" y="18" width="14" height="14" rx="2"/>
        <rect x="0" y="36" width="14" height="14" rx="2"/>
        <rect x="0" y="54" width="14" height="14" rx="2"/>
        <rect x="0" y="72" width="14" height="14" rx="2"/>
        <rect x="0" y="90" width="14" height="14" rx="2"/>
        <rect x="0" y="108" width="14" height="14" rx="2"/>
      </g>
    </g>

    <!-- highlight targets that will be shot (individually animated) -->
    <g id="targets" fill="#1f6f3f">
      <rect id="t1" x="90" y="36" width="14" height="14" rx="2">
        <animate attributeName="fill" values="#34d399;#10b981;#34d399" begin="0.9s" dur="0.6s" fill="freeze"/>
        <animate attributeName="fill-opacity" values="1;0.2;1" begin="0.9s" dur="0.6s"/>
      </rect>
      <rect id="t2" x="126" y="72" width="14" height="14" rx="2">
        <animate attributeName="fill" values="#34d399;#10b981;#34d399" begin="1.7s" dur="0.6s" fill="freeze"/>
        <animate attributeName="fill-opacity" values="1;0.2;1" begin="1.7s" dur="0.6s"/>
      </rect>
      <rect id="t3" x="162" y="18" width="14" height="14" rx="2">
        <animate attributeName="fill" values="#34d399;#10b981;#34d399" begin="2.5s" dur="0.6s" fill="freeze"/>
        <animate attributeName="fill-opacity" values="1;0.2;1" begin="2.5s" dur="0.6s"/>
      </rect>
      <rect id="t4" x="198" y="90" width="14" height="14" rx="2">
        <animate attributeName="fill" values="#34d399;#10b981;#34d399" begin="3.3s" dur="0.6s" fill="freeze"/>
        <animate attributeName="fill-opacity" values="1;0.2;1" begin="3.3s" dur="0.6s"/>
      </rect>
      <rect id="t5" x="234" y="54" width="14" height="14" rx="2">
        <animate attributeName="fill" values="#34d399;#10b981;#34d399" begin="4.1s" dur="0.6s" fill="freeze"/>
        <animate attributeName="fill-opacity" values="1;0.2;1" begin="4.1s" dur="0.6s"/>
      </rect>
    </g>
  </g>

  <!-- ship -->
  <g id="ship" transform="translate(460,192)">
    <polygon points="0,-10 10,6 -10,6" fill="#e2e8f0" filter="url(#f-glow)"/>
    <polygon points="0,6 4,16 -4,16" fill="url(#g-thruster)">
      <animate attributeName="points" values="0,6 4,16 -4,16; 0,6 3,18 -3,18; 0,6 4,16 -4,16" dur="0.5s" repeatCount="indefinite"/>
    </polygon>
    <rect x="-1" y="-16" width="2" height="6" fill="#22d3ee">
      <animate attributeName="opacity" values="0.4;1;0.4" dur="1.2s" repeatCount="indefinite"/>
    </rect>
  </g>

  <!-- bullets (staggered) -->
  <g id="bullets" fill="url(#g-laser)" filter="url(#f-glow)">
    <rect x="430" y="190" width="2" height="8">
      <animate attributeName="y" values="190;70;190" keyTimes="0;0.5;1" dur="8s" begin="0.6s" repeatCount="indefinite"/>
    </rect>
    <rect x="466" y="190" width="2" height="8">
      <animate attributeName="y" values="190;106;190" keyTimes="0;0.5;1" dur="8s" begin="1.4s" repeatCount="indefinite"/>
    </rect>
    <rect x="502" y="190" width="2" height="8">
      <animate attributeName="y" values="190;52;190" keyTimes="0;0.5;1" dur="8s" begin="2.2s" repeatCount="indefinite"/>
    </rect>
    <rect x="538" y="190" width="2" height="8">
      <animate attributeName="y" values="190;124;190" keyTimes="0;0.5;1" dur="8s" begin="3.0s" repeatCount="indefinite"/>
    </rect>
    <rect x="574" y="190" width="2" height="8">
      <animate attributeName="y" values="190;88;190" keyTimes="0;0.5;1" dur="8s" begin="3.8s" repeatCount="indefinite"/>
    </rect>
  </g>

  <!-- impact sparks -->
  <g id="sparks" fill="#a7f3d0" opacity="0.9">
    <circle cx="230" cy="88" r="1">
      <animate attributeName="r" values="1;6;1" dur="8s" begin="0.9s" repeatCount="indefinite"/>
      <animate attributeName="opacity" values="0.9;0.1;0.9" dur="8s" begin="0.9s" repeatCount="indefinite"/>
    </circle>
    <circle cx="266" cy="124" r="1">
      <animate attributeName="r" values="1;6;1" dur="8s" begin="1.7s" repeatCount="indefinite"/>
      <animate attributeName="opacity" values="0.9;0.1;0.9" dur="8s" begin="1.7s" repeatCount="indefinite"/>
    </circle>
    <circle cx="302" cy="70" r="1">
      <animate attributeName="r" values="1;6;1" dur="8s" begin="2.5s" repeatCount="indefinite"/>
      <animate attributeName="opacity" values="0.9;0.1;0.9" dur="8s" begin="2.5s" repeatCount="indefinite"/>
    </circle>
    <circle cx="338" cy="142" r="1">
      <animate attributeName="r" values="1;6;1" dur="8s" begin="3.3s" repeatCount="indefinite"/>
      <animate attributeName="opacity" values="0.9;0.1;0.9" dur="8s" begin="3.3s" repeatCount="indefinite"/>
    </circle>
    <circle cx="374" cy="106" r="1">
      <animate attributeName="r" values="1;6;1" dur="8s" begin="4.1s" repeatCount="indefinite"/>
      <animate attributeName="opacity" values="0.9;0.1;0.9" dur="8s" begin="4.1s" repeatCount="indefinite"/>
    </circle>
  </g>

  <!-- frame -->
  <rect x="16" y="16" width="928" height="208" rx="8" ry="8" fill="none" stroke="#0ea5e9" stroke-opacity="0.35"/>
  <text x="28" y="204" fill="#94a3b8" font-family="'SFMono-Regular',Consolas,monospace" font-size="10">inline svg • no js • retro arcade x commit grid</text>
</svg>

